<?xml version="1.0" encoding="UTF-8" standalone="no"?>
<!-- Created with Inkscape (http://www.inkscape.org/) -->

<svg
   xmlns:dc="http://purl.org/dc/elements/1.1/"
   xmlns:cc="http://creativecommons.org/ns#"
   xmlns:rdf="http://www.w3.org/1999/02/22-rdf-syntax-ns#"
   xmlns:svg="http://www.w3.org/2000/svg"
   xmlns="http://www.w3.org/2000/svg"
   xmlns:sodipodi="http://sodipodi.sourceforge.net/DTD/sodipodi-0.dtd"
   xmlns:inkscape="http://www.inkscape.org/namespaces/inkscape"
   width="496.09"
   height="421.35999"
   id="svg2"
   version="1.1"
   inkscape:version="0.48.4 r9939"
   sodipodi:docname="home-ci.svg">
  <defs
     id="defs4" />
  <sodipodi:namedview
     id="base"
     pagecolor="#ffffff"
     bordercolor="#666666"
     borderopacity="1.0"
     inkscape:pageopacity="0.0"
     inkscape:pageshadow="2"
     inkscape:zoom="0.49497475"
     inkscape:cx="-136.32746"
     inkscape:cy="479.58898"
     inkscape:document-units="px"
     inkscape:current-layer="layer1"
     showgrid="false"
     inkscape:window-width="1366"
     inkscape:window-height="719"
     inkscape:window-x="0"
     inkscape:window-y="25"
     inkscape:window-maximized="1" />
  <metadata
     id="metadata7">
    <rdf:RDF>
      <cc:Work
         rdf:about="">
        <dc:format>image/svg+xml</dc:format>
        <dc:type
           rdf:resource="http://purl.org/dc/dcmitype/StillImage" />
        <dc:title></dc:title>
      </cc:Work>
    </rdf:RDF>
  </metadata>
  <g
     inkscape:label="Layer 1"
     inkscape:groupmode="layer"
     id="layer1"
     transform="translate(0,-631.0002)">
    <g
       id="g3012"
       transform="translate(11.008041,489.66657)">
      <path
         style="fill:#cccccc"
         d="M 148.64285,556.39125 C 92.838211,552.87733 44.598814,541.69501 16.240836,525.69929 7.537817,520.79023 -5.573054,508.41851 -8.2776022,502.56311 c -1.4647632,-3.17123 -1.7234678,-5.89546 -1.4319485,-15.07882 0.3438658,-10.83236 0.4966001,-11.49246 4.5535237,-19.67967 4.99254,-10.07536 12.752295,-18.91978 25.246574,-28.77553 7.478546,-5.89924 9.059652,-7.6688 10.420403,-11.66238 2.343126,-6.8767 5.899607,-10.94142 12.167961,-13.90682 l 5.55014,-2.62564 -0.625072,-89.20031 c -0.343789,-49.06018 -0.774507,-89.69883 -0.957151,-90.30813 -0.182645,-0.6093 -1.720757,-1.38555 -3.418029,-1.725 -8.497181,-1.69944 -6.527809,-2.71086 83.664051,-42.96798 47.7125,-21.29646 87.65,-38.70819 88.75,-38.69273 1.1,0.0155 13.00929,4.93707 26.46508,10.93691 13.4558,5.99983 24.79734,10.70344 25.20343,10.45247 0.40608,-0.25098 0.52703,-4.88389 0.26877,-10.29537 -0.41363,-8.66697 -0.23896,-10.12265 1.46636,-12.21977 1.7908,-2.20225 2.58788,-2.3693 10.63275,-2.22839 5.93347,0.10392 9.14,0.59549 10.09156,1.54705 1.01673,1.01673 1.59493,5.969 2.13339,18.27242 l 0.73866,16.87769 51.38582,22.81553 c 28.2622,12.54855 52.01877,23.34084 52.79238,23.98288 1.9468,1.61569 0.28335,3.06919 -4.96056,4.33446 l -4.21764,1.01764 -0.26334,34.43274 c -0.20559,26.88163 0.0137,34.6086 1,35.23468 0.69484,0.44108 3.08846,0.80885 5.31917,0.81727 2.2307,0.008 6.9557,0.99361 10.5,2.18931 5.08991,1.71713 7.66936,3.39835 12.27417,8 3.2065,3.2043 6.38884,5.826 7.07186,5.826 3.15616,0 10.73377,3.42424 14.2634,6.44547 7.4371,6.36588 11.63418,17.81437 9.90669,27.0227 -0.39066,2.08238 -2.23219,5.36376 -4.28595,7.63703 l -3.601,3.98587 2.4075,1.67827 c 3.64365,2.53999 7.84123,7.31971 9.88928,11.26076 4.38371,8.43554 6.88162,23.04978 5.08203,29.73293 -1.0968,4.07318 -5.60779,9.76734 -9.56381,12.07224 -1.89891,1.10637 -1.79782,1.32572 2,4.33977 2.2,1.74597 8.08484,7.25835 13.07743,12.24973 14.65167,14.64813 21.18072,27.67851 22.14794,44.20183 0.486,8.30255 0.30311,9.63145 -2.02562,14.71806 -9.37194,20.471 -42.48602,36.79223 -97.54668,48.07868 -51.37526,10.53102 -101.29889,14.6407 -175.15307,14.41851 -22.825,-0.0687 -50.5,-0.69157 -61.5,-1.38422 z m 116.83819,-78.41659 c 1.14911,-1.12064 2.04706,-74.21416 0.99496,-80.99025 -0.8359,-5.38368 -0.88809,-5.44982 -4.33961,-5.5 l -3.49354,-0.0508 -0.26099,43 c -0.14354,23.65 -0.0269,43.61023 0.25932,44.35607 0.53755,1.401 5.12849,0.85395 6.83986,-0.81503 z m 52.30587,-15.80635 c 0.64176,-0.41212 1.43184,-4.90568 1.79951,-10.23469 0.66588,-9.65119 0.62939,-73.16794 -0.0425,-73.89957 -0.2018,-0.21976 -1.83711,0.022 -3.63402,0.53722 l -3.2671,0.93678 -0.26156,40.46147 c -0.14386,22.25381 -0.0455,41.02456 0.21862,41.71279 0.52726,1.37402 3.38692,1.64196 5.187,0.486 z m 54.83152,-15.22541 c 2.24632,-0.85404 2.60499,-1.57828 2.60002,-5.25 -0.003,-2.3426 0.23819,-20.86128 0.53635,-41.15262 l 0.54213,-36.89335 -3.70094,0.60058 c -2.03552,0.33032 -3.84189,0.74152 -4.01415,0.91378 -0.26388,0.26388 -0.70455,69.6734 -0.50488,79.52233 0.0713,3.51688 0.57485,3.76739 4.54147,2.25928 z m -133.54778,-4.32262 c 5.73529,-1.2394 10.61029,-2.80092 10.83333,-3.47005 0.52824,-1.58471 -1.89237,-1.51587 -9.26113,0.26339 -7.88494,1.90389 -11.14521,1.88696 -11.89301,-0.0618 -1.22906,-3.20288 -0.66452,-23.12557 0.68708,-24.24731 0.71174,-0.59069 5.24537,-1.95441 10.07473,-3.0305 8.36783,-1.86453 11.7825,-3.1404 8.40483,-3.1404 -0.85784,0 -5.00862,0.71325 -9.22396,1.585 -4.21534,0.87175 -8.31348,1.33588 -9.10697,1.03139 -1.88776,-0.7244 -2.05264,-13.88121 -0.1927,-15.37629 0.6875,-0.55264 5.075,-1.79916 9.75,-2.77004 8.20056,-1.70306 10.97429,-2.82911 9.81771,-3.98568 -0.62619,-0.62619 -18.15707,3.03444 -21.56771,4.50356 -2.24521,0.96712 -2.25,1.02098 -2.25,25.32395 0,13.39513 0.3,24.65478 0.66667,25.02144 0.94908,0.94908 1.65492,0.86144 13.26113,-1.64667 z m 111.0722,-7.46015 9.5,-2.73638 0.24602,-20.49506 c 0.13531,-11.27229 -0.0897,-21.01054 -0.5,-21.64055 -0.54885,-0.84274 -3.08834,-0.63686 -9.60861,0.779 -11.37821,2.47075 -11.63741,2.27573 -11.63741,-8.75596 0,-4.91837 -0.41291,-8.37756 -1,-8.37756 -0.64583,0 -1,11.33333 -1,32 l 0,32 2.25,-0.0186 c 1.2375,-0.0102 6.525,-1.24993 11.75,-2.75494 z m 54.764,1.34283 c 0.71788,-0.71789 1.09317,-14.07617 1.28024,-45.56934 0.18221,-30.67614 0.0307,-34.53472 -1.36725,-34.81323 -0.8647,-0.17228 -2.49576,0.18105 -3.62458,0.78518 -2.01746,1.07971 -2.05241,1.78079 -2.05241,41.17164 l 0,40.07323 2.74795,-0.6897 c 1.51137,-0.37933 2.86859,-0.81033 3.01605,-0.95778 z M 240.8087,327.96982 c 7.69003,-1.63008 14.73614,-3.25323 15.65802,-3.60698 1.50591,-0.57788 1.67613,-3.16518 1.67613,-25.47719 0,-13.6587 -0.38922,-25.07455 -0.86494,-25.36856 -0.86575,-0.53506 -32.50716,5.91043 -34.22419,6.97162 -0.50843,0.31422 -0.91087,11.58236 -0.91087,25.50393 l 0,24.94098 2.34198,0 c 1.28809,0 8.63383,-1.33371 16.32387,-2.9638 z m -14.99918,-0.70287 c -1.28408,-1.28407 -0.75256,-25.02221 0.58333,-26.05235 1.76338,-1.35979 26.55657,-6.51856 27.75844,-5.77576 1.52331,0.94145 1.28626,25.0149 -0.25844,26.24661 -1.02392,0.81645 -24.23142,6.24817 -26.69586,6.24817 -0.39644,0 -1.02081,-0.3 -1.38747,-0.66667 z m -0.63149,-30.26759 c -1.45277,-2.71453 -1.29073,-11.33399 0.25276,-13.44484 1.69968,-2.32445 27.04252,-7.89044 28.64232,-6.29064 0.58836,0.58836 1.06974,4.13939 1.06974,7.89118 0,6.12022 -0.23129,6.92108 -2.25,7.79072 -1.77698,0.76551 -24.71017,5.98784 -26.29482,5.98784 -0.21165,0 -0.85065,-0.87042 -1.42,-1.93426 z m 94.47805,15.97044 c 7.69272,-1.63009 15.56177,-3.42726 17.48677,-3.9937 1.925,-0.56643 11.14201,-2.63777 20.48225,-4.60296 9.34024,-1.96519 17.35989,-4.10552 17.82145,-4.7563 0.87784,-1.23771 0.008,-48.70441 -0.90887,-49.62173 -0.59232,-0.59231 -31.84599,5.69707 -34.31002,6.90443 -0.87164,0.42711 -8.10981,2.03429 -16.08481,3.57153 -7.975,1.53723 -15.9625,3.19132 -17.75,3.67576 l -3.25,0.8808 0,25.45299 c 0,19.83787 0.27868,25.453 1.26323,25.453 0.69477,0 7.55727,-1.33372 15.25,-2.96382 z m -12.84656,-1.70285 c -0.36667,-0.36666 -0.66667,-6.2278 -0.66667,-13.02475 0,-11.90911 0.0817,-12.38751 2.25,-13.16813 4.8148,-1.73343 24.67518,-5.38314 26.17054,-4.80931 1.32246,0.50747 1.57946,2.63554 1.57946,13.07846 0,6.8598 -0.3798,12.70709 -0.84399,12.99398 -1.15774,0.71552 -23.89403,5.59642 -26.06935,5.59642 -0.96433,0 -2.05333,-0.3 -2.41999,-0.66667 z m 36.97701,-8.10085 c -1.07594,-1.7409 -1.04145,-24.23471 0.0388,-25.31497 1.85446,-1.85446 26.62433,-6.88381 28.06751,-5.69891 0.86434,0.70965 1.25,4.4776 1.25,12.21272 0,7.39228 -0.42397,11.75254 -1.25,12.85552 -0.79565,1.06241 -5.51476,2.58582 -12.98302,4.19113 -12.68518,2.7267 -14.39953,2.92559 -15.1233,1.75451 z m -38.03669,-21.81427 c -0.94399,-2.46001 -0.71426,-11.34925 0.34443,-13.32744 1.40918,-2.63307 27.80201,-8.09247 29.11229,-6.02193 1.41888,2.24215 1.13874,13.51825 -0.36688,14.76781 -1.25878,1.04469 -23.4999,6.14777 -26.83984,6.15821 -0.90366,0.003 -1.91616,-0.70666 -2.25,-1.57665 z m 37.05968,-7.08488 c -1.29494,-1.29493 -0.72261,-14.04202 0.68284,-15.20843 0.74222,-0.616 7.28536,-2.35581 14.5403,-3.86625 15.00236,-3.12342 15.07833,-3.09953 15.08122,4.74135 0.002,5.92183 -0.8139,8.72573 -2.75665,9.47123 -1.90602,0.73141 -24.25353,5.51631 -25.79771,5.52363 -0.59584,0.003 -1.38334,-0.29486 -1.75,-0.66153 z m -36.00563,-47.78439 c 2.2462,-0.56376 2.33896,-0.96304 2.33896,-10.06799 0,-10.78007 0.4314,-10.39678 -9,-7.99642 l -5.5,1.39979 5.5,-0.19216 5.5,-0.19216 0,7.97643 0,7.97642 -10.4766,2.32392 c -9.89184,2.1942 -10.54744,2.22705 -11.74556,0.58852 -1.35428,-1.85209 -1.25194,-12.49335 0.15018,-15.61529 0.61154,-1.36164 0.31837,-1.75 -1.32103,-1.75 -2.00672,0 -2.10699,0.49176 -2.10699,10.33333 0,5.68334 0.23188,10.56521 0.51528,10.84862 0.41792,0.41792 11.85223,-2.04556 26.14576,-5.63301 z"
         id="path3022"
         inkscape:connector-curvature="0" />
      <path
         style="fill:#a0a0a0"
         d="M 170.14285,556.88565 C 135.91588,554.97627 95.563831,549.58107 69.564972,543.43806 44.061329,537.41206 18.453831,526.73477 6.6656,517.21156 0.192612,511.98231 -6.844021,503.43204 -6.852111,500.78608 c -0.0037,-1.21651 2.135085,-0.21508 8.175138,3.82776 24.80926,16.60578 57.644412,26.99498 102.819823,32.53267 16.33458,2.00232 81.89879,1.64855 104,-0.56117 67.49532,-6.74831 130.88946,-19.11197 219.5,-42.80873 14.3,-3.8242 26.41529,-7.3661 26.92287,-7.87091 1.48241,-1.4743 -0.76551,-5.19619 -7.46181,-12.35456 -7.41695,-7.92873 -17.19089,-14.62653 -27.42934,-18.79651 l -7.53172,-3.06756 0,-5.81771 c 0,-3.19974 -0.44156,-6.09061 -0.98125,-6.42415 -0.53969,-0.33355 -8.39706,1.66489 -17.46082,4.44098 -9.06376,2.77609 -16.8347,5.04825 -17.26875,5.04925 -0.43405,10e-4 -0.63762,-2.68101 -0.45237,-5.96004 l 0.3368,-5.96186 3.55425,0.21004 c 4.84643,0.2864 5.27612,-1.84355 0.80228,-3.97698 -2.94367,-1.40374 -3.56739,-2.20441 -3.32655,-4.27033 0.24553,-2.10619 1.06887,-2.72882 4.79641,-3.62718 l 4.5,-1.08453 0,-31.91547 c 0,-31.30573 -0.0382,-31.91221 -2,-31.74469 -6.16273,0.52624 -16.02535,2.52033 -17.17198,3.47195 -1.85046,1.53574 -1.96452,83.82077 -0.11875,85.66654 0.94569,0.94569 0.69891,1.56674 -1.13221,2.84931 -2.25005,1.57599 -2.31554,1.98359 -1.67729,10.43843 0.59145,7.83472 0.46902,8.89619 -1.11779,9.69133 -0.98009,0.49112 -9.53983,3.53431 -19.02165,6.76264 -12.13791,4.13267 -17.55318,5.55617 -18.2991,4.81025 -0.58445,-0.58445 -1.07893,-5.16215 -1.10292,-10.21033 -0.0362,-7.62194 -0.30524,-9.1509 -1.61011,-9.1509 -0.86164,0 -6.55748,1.56323 -12.65741,3.47386 -6.09994,1.91062 -20.31579,6.30969 -31.59079,9.77572 l -20.5,6.30186 -0.2498,8.97428 c -0.30571,10.98297 -0.83377,13.47428 -2.85597,13.47428 -0.86222,0 -11.43059,-5.21691 -23.48527,-11.59312 -16.32842,-8.63678 -22.05501,-12.14315 -22.45646,-13.75 -0.29636,-1.18629 -0.40692,-6.38851 -0.24567,-11.5605 l 0.29317,-9.40362 7.5,-1.76564 7.5,-1.76564 8.19859,3.51585 c 6.58634,2.82445 8.95016,3.38886 12.02046,2.87014 2.10202,-0.35514 4.326,-0.9611 4.94217,-1.34659 1.55331,-0.97177 2.24348,-25.39747 0.7319,-25.90239 -0.60879,-0.20336 -5.10879,0.50691 -10,1.57838 -4.89122,1.07147 -9.24606,1.61207 -9.67742,1.20133 -0.43137,-0.41074 -0.65637,-5.8559 -0.5,-12.10036 l 0.2843,-11.35355 9.7087,-2.06215 c 10.1118,-2.14776 13.08131,-3.67213 11.07049,-5.68295 -0.82774,-0.82774 -3.62185,-0.64974 -10.68592,0.68074 -5.26082,0.99086 -9.87197,1.4947 -10.24702,1.11966 -1.3144,-1.31441 -1.62583,-11.38876 -0.37595,-12.16124 0.65812,-0.40674 5.54654,-1.70226 10.86314,-2.87894 9.12614,-2.0198 9.68394,-2.28996 9.97747,-4.83223 0.24291,-2.10393 -0.305,-3.01132 -2.50539,-4.14919 -3.91292,-2.02345 -40.54013,-16.65799 -41.69148,-16.65799 -0.58143,0 -0.67569,21.87431 -0.24786,57.52054 0.62878,52.38995 0.54652,57.57573 -0.92229,58.13936 -0.9286,0.35634 -13.5598,-4.14817 -29.77827,-10.61946 -15.49109,-6.18107 -31.3979,-12.41789 -35.34846,-13.85962 l -7.18283,-2.62131 -2.23507,2.84143 c -2.43631,3.09727 -7.45306,5.59906 -11.22759,5.59906 -1.31592,0 -4.05383,-1.12736 -6.08425,-2.50524 l -3.69167,-2.50523 -3.9188,3.14923 c -4.82959,3.88117 -11.980839,4.94483 -16.730839,2.48851 -2.79811,-1.44696 -3.48792,-1.45167 -7.4156,-0.0506 -5.534281,1.97416 -11.855307,1.11479 -15.720112,-2.13723 -3.553327,-2.98993 -5.236773,-3.06269 -7.70541,-0.33303 -5.669428,6.26888 -17.109652,8.14892 -24.999668,4.10835 -12.873961,-6.5929 -16.351953,-22.87021 -6.809652,-31.86976 1.853533,-1.7481 4.297017,-5.65589 5.429965,-8.68396 2.351527,-6.28502 7.737876,-11.76783 13.394961,-13.63483 l 3.68201,-1.21518 -0.684303,-90.65551 c -0.389776,-51.63684 -1.07512,-91.1513 -1.592321,-91.80741 -0.499409,-0.63353 -2.046526,-1.43763 -3.438037,-1.78688 -1.391512,-0.34925 -2.378762,-1.08877 -2.193888,-1.64339 0.184874,-0.55463 14.504341,-7.32707 31.821039,-15.04988 39.687845,-17.69977 79.922735,-35.6712 114.093845,-50.96147 14.63492,-6.54857 27.29323,-11.90649 28.12957,-11.90649 0.83634,0 12.68703,4.96468 26.33486,11.03262 13.64783,6.06794 25.46759,10.78191 26.26613,10.47548 1.20001,-0.46049 1.33681,-2.33716 0.78855,-10.81737 -0.8857,-13.6997 -0.52032,-14.20652 10.19725,-14.14474 5.0962,0.0294 8.55549,0.52515 9.57642,1.37245 1.34007,1.11216 1.59828,3.86065 1.59828,17.01287 0,11.03586 0.37059,16.15705 1.25,17.27385 0.6875,0.87308 23.975,11.60605 51.75,23.85105 27.775,12.24499 51.10284,22.81058 51.83965,23.47908 2.26646,2.05633 -8.5002,4.56555 -74.83965,17.44173 -34.375,6.67204 -71.5,13.88366 -82.5,16.02584 -11,2.14218 -22.84389,4.4326 -26.31976,5.08983 l -6.31977,1.19497 0.31977,40.27392 c 0.17587,22.15065 0.65501,40.60868 1.06477,41.01784 0.40975,0.40916 40.67041,-8.44133 89.46813,-19.66775 74.63293,-17.17007 89.11971,-20.77919 91.22032,-22.72589 2.1874,-2.02714 3.12174,-2.22954 7.53186,-1.63153 9.30196,1.26134 15.60086,4.32337 21.53468,10.46848 4.24671,4.39793 6.3718,5.83032 9.32587,6.286 8.29626,1.27973 16.46604,8.64363 19.51552,17.59049 3.01196,8.83677 0.41897,19.65814 -5.33909,22.28169 -3.26556,1.48789 -3.17386,3.41599 0.2477,5.20809 3.82996,2.00601 8.64374,7.33071 11.14646,12.32952 4.56877,9.1254 6.36912,23.31676 3.7525,29.57922 -1.33842,3.20327 -7.82501,9.70226 -9.68376,9.70226 -1.73381,0 -1.0134,3.48881 0.97711,4.7319 4.6749,2.91952 16.6257,14.00835 21.67778,20.11423 10.36257,12.52408 17.33686,31.17821 15.89753,42.52114 -2.07116,16.32217 -17.2929,29.51908 -47.49067,41.17334 -37.48621,14.4671 -103.21572,25.17823 -181.02695,29.49975 -17.8964,0.99394 -66.50502,0.94343 -85,-0.0883 z m 95.50217,-76.95286 2.59038,-0.98486 -0.67352,-9.7791 c -0.53659,-7.79083 -0.38835,-10.01578 0.72906,-10.94315 0.77142,-0.64022 9.26618,-3.33703 18.87725,-5.99291 l 17.47466,-4.82886 -0.1155,-32.76731 c -0.0635,-18.02202 -0.34472,-32.99654 -0.62488,-33.2767 -0.28016,-0.28016 -8.75854,1.56219 -18.84084,4.09412 -11.97709,3.00775 -19.90645,4.49536 -22.87511,4.29155 l -4.54367,-0.31195 -0.26074,45 c -0.14341,24.75 -0.0267,45.61023 0.25932,46.35607 0.53106,1.38476 2.72555,1.14981 8.00359,-0.8569 z m 52.49783,-16.29588 c 2.40607,-1.21961 2.48693,-1.5723 2.15213,-9.38738 -0.42341,-9.88345 0.75195,-11.53212 9.50548,-13.33328 13.24399,-2.72515 29.92397,-7.19787 31.09399,-8.33782 1.90307,-1.85417 0.49924,-43.61132 -1.49185,-44.37537 -0.779,-0.29894 -4.76892,0.19315 -8.86648,1.09352 -11.15418,2.45095 -10.39327,3.02661 -10.39327,-7.86296 0,-10.95014 0.61156,-10.5026 -10.27108,-7.51635 -3.97591,1.09101 -9.25392,2.22915 -11.72892,2.52918 -8.11569,0.98385 -7.5415,-2.60568 -7.15058,44.70195 0.19217,23.25687 0.55623,42.62272 0.80901,43.03522 0.68888,1.12415 3.52817,0.87938 6.34157,-0.54671 z m 85.88909,-25.14593 2.78976,-1.44265 0.65795,-20.30735 c 0.36187,-11.16905 0.65913,-29.65898 0.66057,-41.08874 0.003,-23.01656 0.0454,-22.87792 -6.35915,-20.76424 -2.44951,0.80842 -3.64151,1.9178 -4.1272,3.84117 -0.70842,2.80534 0.40338,79.12949 1.17196,80.45445 0.64476,1.11151 2.08878,0.91939 5.20611,-0.69264 z m -223.88909,-25.41788 0,-24.86053 L 163.87,383.5731 c -8.95007,-2.55172 -16.60007,-4.63948 -17,-4.63948 -0.39993,0 -0.72715,11.23266 -0.72715,24.96146 l 0,24.96145 3.75,1.02325 c 2.0625,0.56278 8.925,2.55917 15.25,4.4364 6.325,1.87724 12.2875,3.45913 13.25,3.5153 1.62248,0.0947 1.75,-1.70945 1.75,-24.75838 z m -17,16.99422 -12.5,-3.6337 -0.64147,-6 c -1.0103,-9.44992 -0.94893,-17.32609 0.14024,-17.99924 0.99384,-0.61423 21.91436,4.89477 25.25123,6.6494 1.51059,0.79432 1.75,2.48056 1.75,12.32601 0,6.27319 -0.3375,11.60502 -0.75,11.84852 -0.4125,0.24349 -6.375,-1.19245 -13.25,-3.19099 z m -1.219,-29.48916 c -5.89545,-1.7504 -11.20737,-3.67091 -11.80425,-4.26779 -0.61238,-0.61238 -0.95268,-3.65419 -0.781,-6.981 0.29641,-5.74379 0.37383,-5.88853 3.004,-5.61578 1.48486,0.15399 7.55986,1.74402 13.5,3.53341 l 10.80025,3.25345 0,6.46658 c 0,7.9796 -0.003,7.98036 -14.719,3.61113 z m -66.444419,11.60546 c 0.25925,-0.9625 0.17708,-12.31102 -0.18261,-25.21893 l -0.65397,-23.46893 -14.5,-4.20935 c -7.975,-2.31514 -15.5125,-4.24162 -16.75,-4.28107 l -2.25,-0.0717 0,25 0,25 4,0 c 4.141955,0 5.389819,-1.42411 2.149124,-2.45267 -1.596652,-0.50676 -1.94298,-2.10393 -2.521443,-11.62818 -0.368812,-6.07241 -0.40936,-11.46338 -0.09011,-11.97995 0.929617,-1.50415 4.249127,-1.00211 15.962426,2.41411 l 11,3.20819 0.2843,11.38495 c 0.15637,6.26172 -0.10943,11.77868 -0.59065,12.2599 -0.49994,0.49994 -4.17383,-0.0301 -8.57162,-1.23659 -8.788655,-2.41113 -11.386784,-2.19261 -7.214052,0.60676 2.212398,1.48424 13.554392,5.28523 18.774632,6.29185 0.37544,0.0724 0.89473,-0.65587 1.15397,-1.61837 z m -18.33658,-36.14193 -12.5,-3.67718 -0.29569,-6.71544 c -0.257222,-5.84181 -0.06801,-6.71545 1.454427,-6.71545 2.654655,0 23.658433,6.07538 25.134863,7.27031 1.53345,1.24107 1.27495,12.94474 -0.2936,13.29294 -0.55,0.12209 -6.625,-1.43274 -13.5,-3.45518 z m 104.999999,-69.06572 0,-24.95766 -6.75,-1.96354 c -15.73364,-4.57685 -26.5053,-7.19925 -27.10637,-6.59915 -1.04118,1.03951 -1.31566,46.83221 -0.28987,48.3604 0.76646,1.14185 28.74505,9.65615 32.89624,10.01081 0.96946,0.0828 1.25,-5.49445 1.25,-24.85086 z m -19,16.61971 -11.5,-3.18736 -0.2843,-11.40305 c -0.15637,-6.27168 0.11485,-11.8022 0.60271,-12.29006 0.96549,-0.96549 23.81932,4.73389 25.96295,6.47475 0.93519,0.75948 1.20535,4.03978 1,12.14213 -0.26036,10.27281 -0.43066,11.11457 -2.28136,11.27624 -1.1,0.0961 -7.175,-1.2596 -13.5,-3.01265 z m 4,-28.25997 c -4.675,-1.33304 -10.1875,-2.8862 -12.25,-3.45145 l -3.75,-1.02773 0,-6.96145 c 0,-3.8288 0.34654,-6.96146 0.7701,-6.96146 0.74869,0 10.32889,2.54133 20.9799,5.56531 l 5.25,1.49056 0,6.97206 c 0,4.95744 -0.3612,6.9469 -1.25,6.88498 -0.6875,-0.0479 -5.075,-1.17777 -9.75,-2.51082 z m -71.846249,-9.90209 c -0.19044,-13.2 -0.64044,-24.31423 -1,-24.69829 -0.70516,-0.7532 -29.835589,-8.78356 -31.90375,-8.79487 -1.718218,-0.009 -1.823353,48.52077 -0.107413,49.58128 2.292209,1.41667 28.428783,8.27346 30.857413,8.09529 l 2.5,-0.18341 -0.34625,-24 z m -18.15375,17.05211 -11.5,-3.23938 -0.80109,-11.30527 c -0.52749,-7.44413 -0.451267,-11.6551 0.223177,-12.32955 0.699023,-0.69902 5.081397,0.0636 13.80109,2.40158 l 12.776823,3.42584 0,11.98364 c 0,9.9146 -0.25898,12.01117 -1.5,12.14308 -0.825,0.0877 -6.675,-1.29828 -13,-3.07994 z m 1.461695,-28.98706 c -6.621068,-1.75194 -12.583568,-3.52234 -13.25,-3.93422 -1.465303,-0.9056 -1.661818,-12.2346 -0.227599,-13.121 1.157307,-0.71526 23.937424,5.22089 25.765904,6.7142 1.35045,1.1029 1.78003,12.35107 0.5,13.09215 -0.4125,0.23882 -6.16724,-0.99919 -12.788305,-2.75113 z M 295.64285,230.39299 c 6.05,-1.39335 11.7875,-2.77204 12.75,-3.06376 1.52094,-0.46096 1.75,-1.8959 1.75,-10.963 0,-12.23672 0.93132,-11.65566 -13.55066,-8.45425 -4.92214,1.08809 -10.86184,1.9881 -13.19934,2 l -4.25,0.0216 0,11.33333 c 0,6.23334 0.29181,11.62514 0.64846,11.98179 0.35665,0.35666 1.59415,0.43002 2.75,0.16304 1.15585,-0.26698 7.05154,-1.62543 13.10154,-3.01879 z m -11.04748,-3.7225 c -0.31136,-0.8114 -0.42805,-3.89663 -0.25932,-6.85607 l 0.3068,-5.3808 5,-1.23918 c 2.75,-0.68156 7.25,-1.35655 10,-1.5 l 5,-0.26082 0.29513,5.5901 c 0.35524,6.72861 -0.13251,7.21876 -8.79513,8.83843 -3.575,0.66842 -7.50831,1.45568 -8.74068,1.74946 -1.43586,0.34229 -2.44403,0.004 -2.8068,-0.94112 z m -57.46121,93.51313 c -0.005,-3.1625 -0.2513,-8 -0.54783,-10.75 -0.29652,-2.75 -0.16126,-5.55004 0.30059,-6.2223 1.01376,-1.47563 23.99436,-6.59205 26.05566,-5.80106 1.21498,0.46624 1.33603,2.41329 0.73303,11.79091 -0.39725,6.17785 -0.82769,11.34301 -0.95653,11.47814 -0.38255,0.4012 -22.76032,5.25431 -24.22771,5.25431 -0.974,0 -1.35093,-1.59691 -1.35721,-5.75 z m 80.59914,-10.87488 c -1.17639,-3.06563 -0.63912,-21.09138 0.65955,-22.12807 1.82377,-1.45585 25.14307,-6.22767 25.74216,-5.26761 0.27931,0.44761 0.28284,5.91373 0.008,12.14693 l -0.5,11.3331 -9.5,2.09961 c -15.98328,3.53249 -15.76035,3.50781 -16.40955,1.81604 z m 36.62781,-19.10888 0.28174,-11.73375 12.5,-2.72945 c 6.875,-1.5012 12.85135,-2.74601 13.28078,-2.76624 0.42943,-0.0202 0.65443,5.44279 0.5,12.14007 l -0.28078,12.17687 -10.5,2.28305 c -5.775,1.25568 -11.75178,2.30109 -13.28174,2.32313 l -2.78173,0.0401 0.28173,-11.73376 z m -117.80644,5.36456 c -0.28898,-0.75306 -0.38735,-3.78192 -0.21862,-6.73081 l 0.3068,-5.36161 9.73626,-2.15532 c 5.35494,-1.18543 11.31744,-2.45195 13.25,-2.8145 l 3.51374,-0.65919 0,6.4863 c 0,3.56746 -0.40328,6.73554 -0.89617,7.04016 -0.79533,0.49154 -23.23878,5.56417 -24.61823,5.56417 -0.3016,0 -0.7848,-0.61614 -1.07378,-1.3692 z m 80.58818,-20.65224 c 0,-7.11562 -0.23791,-6.94569 13.95318,-9.96638 13.73145,-2.92284 13.04682,-3.1548 13.04682,4.42043 0,7.35292 1.1856,6.48071 -12.95318,9.52918 -14.36415,3.09707 -14.04682,3.18705 -14.04682,-3.98323 z m 37,-8.41117 c 0,-5.25672 0.3199,-6.52998 1.75,-6.96526 4.97718,-1.5149 24.25899,-5.25981 24.71807,-4.80073 0.29256,0.29256 0.53193,3.16658 0.53193,6.38671 0,6.92666 0.27114,6.74043 -14.23255,9.77534 -13.60432,2.84672 -12.76745,3.13487 -12.76745,-4.39606 z"
         id="path3020"
         inkscape:connector-curvature="0" />
      <path
         style="fill:#ea1d24"
         d="m 234.64285,494.84386 c -26.3759,-13.9676 -23.5,-11.16106 -23.5,-22.93329 0,-8.03104 0.28172,-9.97695 1.4444,-9.97695 1.3272,0 29.38717,14.04407 39.3056,19.67254 l 4.25,2.41177 0,10.45784 c 0,7.70712 -0.32879,10.45415 -1.25,10.44378 -0.6875,-0.008 -9.8,-4.5418 -20.25,-10.07569 z m -66.64275,-25.61232 -33.64275,-13.49607 -0.38752,-6.85808 c -0.27548,-4.87532 -0.97872,-7.66554 -2.43241,-9.65093 -1.12468,-1.53606 -2.57219,-5.44857 -3.21668,-8.69446 -0.6684,-3.36633 -2.30372,-7.38563 -3.80667,-9.3561 -4.90109,-6.42567 -13.62273,-7.89011 -19.34777,-3.24867 -1.3879,1.12521 -4.54845,2.96484 -7.023449,4.08808 -2.475,1.12323 -5.91453,3.40614 -7.64339,5.07312 l -3.1434,3.03087 -0.69528,-5.05534 c -0.38241,-2.78044 -1.49793,-6.62967 -2.47893,-8.55385 -0.98101,-1.92418 -1.5905,-3.69165 -1.35444,-3.92771 0.23606,-0.23607 2.9315,0.22423 5.98987,1.02288 3.05837,0.79866 6.18278,1.21338 6.94312,0.9216 1.12524,-0.43179 1.38245,-5.15047 1.38245,-25.36188 0,-16.68775 -0.35984,-25.19122 -1.09722,-25.9286 -1.40336,-1.40336 -34.673174,-10.86572 -35.455027,-10.08387 -0.322599,0.3226 -0.851056,12.21782 -1.174348,26.43382 l -0.587803,25.84727 -3.412142,2.25 c -1.876677,1.2375 -3.830938,2.25 -4.3428,2.25 -0.560685,0 -0.986216,-20.97026 -1.07041,-52.75 -0.07686,-29.0125 -0.414363,-69.625 -0.75,-90.25 l -0.61025,-37.5 -2.253752,-0.98874 c -1.239564,-0.54381 -2.111665,-1.41501 -1.938002,-1.936 0.173662,-0.52099 17.612851,-8.66139 38.753754,-18.08978 21.140899,-9.42839 59.288589,-26.44469 84.772649,-37.814 25.48405,-11.36931 46.97437,-20.67148 47.75625,-20.67148 0.78189,0 12.54244,4.95 26.13456,11 13.59212,6.05 25.51431,11 26.49375,11 1.6085,0 1.78079,-1.1576 1.78079,-11.96482 0,-14.11029 0.38902,-14.64039 10.09779,-13.76003 7.57107,0.68652 8.79059,1.51484 5.32051,3.61378 l -2.75285,1.66511 0.22987,12.97298 c 0.14967,8.44635 0.64419,13.36116 1.41728,14.08547 2.34388,2.196 9.89726,5.71616 58.67008,27.34251 27.21548,12.06761 49.63209,22.3893 49.81468,22.93709 0.45011,1.35032 -2.84387,2.13347 -35.79736,8.51089 -15.675,3.03355 -40.2,7.80817 -54.5,10.61027 -14.3,2.8021 -32.75,6.39584 -41,7.98611 -45.00909,8.67593 -57.07125,11.17189 -57.87517,11.97581 -0.51772,0.51772 -0.41135,38.56644 0.25498,91.20656 1.55817,123.09527 1.55436,123.84383 -0.62981,123.71526 -0.9625,-0.0566 -16.88924,-6.17623 -35.39275,-13.59907 z m 12.94275,-30.49792 c 1.39173,-1.39173 1.72725,-48.42096 0.36082,-50.57403 -0.44471,-0.70072 -8.42532,-3.46678 -17.73469,-6.14679 -15.22269,-4.38236 -17.05193,-4.71294 -18.17613,-3.28484 -1.46074,1.85563 -1.80045,47.78889 -0.37013,50.04553 0.61625,0.97226 28.77645,10.08774 34.17013,11.0609 0.3025,0.0546 1.09,-0.44077 1.75,-1.10077 z m 2.34301,-107.05 c 0.19635,-0.6875 0.13199,-12.5 -0.14301,-26.25 l -0.5,-25 -16.66186,-4.39081 c -9.16402,-2.41495 -17.37652,-4.11657 -18.25,-3.78139 -1.39219,0.53424 -1.58814,3.69066 -1.58814,25.5818 0,18.87975 0.30497,25.16975 1.25,25.78138 1.72385,1.1157 30.74732,9.14144 33.39301,9.23402 1.17866,0.0412 2.30366,-0.4875 2.5,-1.175 z M 96.909731,286.32008 c 0.22206,-20.89501 0.0245,-25.31469 -1.17591,-26.31096 -2.17671,-1.80651 -33.952839,-10.11363 -34.933842,-9.13263 -1.172863,1.17287 -2.019511,49.23588 -0.895592,50.84156 0.995422,1.4221 31.563114,10.10292 34.738464,9.86526 1.93527,-0.14485 2.00864,-0.96252 2.26688,-25.26323 z m 197.756429,-54.8419 c 8.14196,-1.90049 15.17313,-4.03799 15.62482,-4.75 0.45168,-0.71201 0.82814,-5.69618 0.83656,-11.07595 0.013,-8.28322 -0.24445,-9.88106 -1.68063,-10.43217 -0.93277,-0.35794 -6.75363,0.38653 -12.93524,1.65439 -6.1816,1.26785 -12.62697,2.10151 -14.32303,1.85258 -1.82976,-0.26855 -3.52556,0.0797 -4.17022,0.85652 -1.84043,2.21758 -0.43212,25.35007 1.54331,25.35007 0.16547,0 6.96246,-1.55495 15.10443,-3.45544 z m 32.47669,249.58281 c 0,-1.5259 3.04262,-2.91455 16.43295,-7.5 17.9434,-6.14461 19.88084,-6.53203 19.39037,-3.87737 -0.23776,1.28689 -4.6898,3.25292 -16.82332,7.42919 -9.075,3.12356 -17.0625,5.71106 -17.75,5.75 -0.6875,0.0389 -1.25,-0.77187 -1.25,-1.80182 z m -0.66813,-7.70491 c -1.02713,-2.67667 1.62673,-4.0777 17.62882,-9.30664 11.51919,-3.76409 15.65801,-4.7415 16.23469,-3.83393 1.07699,1.69497 0.99475,2.32797 -0.44538,3.42812 -1.26619,0.96727 -30.59162,11.30992 -32.03138,11.297 -0.42977,-0.004 -1.0538,-0.7169 -1.38675,-1.58455 z m -57.76443,-4.18835 c -0.31209,-0.3121 -0.56744,-2.52709 -0.56744,-4.92222 0,-3.55962 0.41083,-4.53334 2.25,-5.33274 3.26777,-1.42034 31.86118,-8.97915 33.96629,-8.97915 1.44861,0 1.78371,0.84942 1.78371,4.52144 0,5.38349 0.56334,5.0561 -17,9.87975 -19.49829,5.35506 -19.83158,5.4339 -20.43256,4.83292 z m -21.56744,-1.36998 c -2.45148,-0.98252 -2.46156,-1.0303 -0.51934,-2.46195 2.56569,-1.89123 5.01934,-1.38861 5.01934,1.02818 0,2.34246 -1.2439,2.73878 -4.5,1.43377 z m 79.40402,-2.39051 c -0.34874,-1.38951 -1.5001,-2.98986 -2.55858,-3.55634 -1.69805,-0.90876 -1.89043,-1.98991 -1.63497,-9.1879 l 0.28953,-8.15795 18.90835,-4.83852 c 20.29687,-5.19384 20.54457,-5.18761 20.57634,0.51709 0.0147,2.64619 -2.97912,6.75 -4.92432,6.75 -0.5168,0 -1.0793,1.6875 -1.25,3.75 l -0.31037,3.75 -13.5,6.67198 c -7.425,3.66958 -13.82893,6.70708 -14.23095,6.75 -0.40202,0.0429 -1.01628,-1.05885 -1.36503,-2.44836 z M 240.126,371.86949 c -12.36573,-7.18528 -24.62065,-14.23179 -27.23315,-15.65893 -4.65157,-2.54103 -5.58055,-3.6456 -3.92604,-4.66814 2.40667,-1.4874 179.59802,-41.515 180.55918,-40.78839 0.61427,0.46437 4.49186,3.31236 8.61686,6.32886 24.35128,17.80745 31.08432,23.10034 30.73743,24.16291 -0.34886,1.06861 -29.54696,8.82673 -132.42178,35.18532 -18.25139,4.67638 -33.33397,8.5025 -33.51685,8.5025 -0.18288,0 -10.44992,-5.87886 -22.81565,-13.06413 z"
         id="path3018"
         inkscape:connector-curvature="0" />
      <path
         style="fill:#b61f23"
         d="m 234.64285,494.84386 c -26.3759,-13.9676 -23.5,-11.16106 -23.5,-22.93329 0,-8.03104 0.28172,-9.97695 1.4444,-9.97695 1.3272,0 29.38717,14.04407 39.3056,19.67254 l 4.25,2.41177 0,10.45784 c 0,7.70712 -0.32879,10.45415 -1.25,10.44378 -0.6875,-0.008 -9.8,-4.5418 -20.25,-10.07569 z m -66.64275,-25.61232 -33.64275,-13.49607 -0.38752,-6.85808 c -0.27548,-4.87532 -0.97872,-7.66554 -2.43241,-9.65093 -1.12468,-1.53606 -2.57219,-5.44857 -3.21668,-8.69446 -0.6684,-3.36633 -2.30372,-7.38563 -3.80667,-9.3561 -4.90109,-6.42567 -13.62273,-7.89011 -19.34777,-3.24867 -1.3879,1.12521 -4.54845,2.96484 -7.023449,4.08808 -2.475,1.12323 -5.91453,3.40614 -7.64339,5.07312 l -3.1434,3.03087 -0.69528,-5.05534 c -0.38241,-2.78044 -1.49793,-6.62967 -2.47893,-8.55385 -0.98101,-1.92418 -1.5905,-3.69165 -1.35444,-3.92771 0.23606,-0.23607 2.9315,0.22423 5.98987,1.02288 3.05837,0.79866 6.18278,1.21338 6.94312,0.9216 1.12524,-0.43179 1.38245,-5.15047 1.38245,-25.36188 0,-16.68775 -0.35984,-25.19122 -1.09722,-25.9286 -1.40336,-1.40336 -34.673174,-10.86572 -35.455027,-10.08387 -0.322599,0.3226 -0.851056,12.21782 -1.174348,26.43382 l -0.587803,25.84727 -3.412142,2.25 c -1.876677,1.2375 -3.830938,2.25 -4.3428,2.25 -0.560685,0 -0.986216,-20.97026 -1.07041,-52.75 -0.07686,-29.0125 -0.414363,-69.625 -0.75,-90.25 l -0.61025,-37.5 -2.253752,-0.98874 c -1.239564,-0.54381 -2.111665,-1.41501 -1.938002,-1.936 0.173662,-0.52099 17.612851,-8.66139 38.753754,-18.08978 21.140899,-9.42839 59.288589,-26.44469 84.772649,-37.814 25.48405,-11.36931 46.7947,-20.67148 47.35699,-20.67148 0.56228,0 0.72494,0.77501 0.36145,1.72225 -0.71066,1.85193 -2.43167,14.28868 -5.5045,39.77775 -1.06088,8.8 -2.84338,23.2 -3.96112,32 -4.78675,37.68638 -5.20152,41.81164 -4.26304,42.40059 0.928,0.58237 1.2128,16.51487 2.81264,157.34941 0.66321,58.3821 0.63507,59.74764 -1.22916,59.64699 -1.04935,-0.0566 -17.04715,-6.17623 -35.55066,-13.59907 z m 12.94275,-30.49792 c 1.39173,-1.39173 1.72725,-48.42096 0.36082,-50.57403 -0.44471,-0.70072 -8.42532,-3.46678 -17.73469,-6.14679 -15.22269,-4.38236 -17.05193,-4.71294 -18.17613,-3.28484 -1.46074,1.85563 -1.80045,47.78889 -0.37013,50.04553 0.61625,0.97226 28.77645,10.08774 34.17013,11.0609 0.3025,0.0546 1.09,-0.44077 1.75,-1.10077 z m 2.34301,-107.05 c 0.19635,-0.6875 0.13199,-12.5 -0.14301,-26.25 l -0.5,-25 -16.66186,-4.39081 c -9.16402,-2.41495 -17.37652,-4.11657 -18.25,-3.78139 -1.39219,0.53424 -1.58814,3.69066 -1.58814,25.5818 0,18.87975 0.30497,25.16975 1.25,25.78138 1.72385,1.1157 30.74732,9.14144 33.39301,9.23402 1.17866,0.0412 2.30366,-0.4875 2.5,-1.175 z M 96.909731,286.32008 c 0.22206,-20.89501 0.0245,-25.31469 -1.17591,-26.31096 -2.17671,-1.80651 -33.952839,-10.11363 -34.933842,-9.13263 -1.172863,1.17287 -2.019511,49.23588 -0.895592,50.84156 0.995422,1.4221 31.563114,10.10292 34.738464,9.86526 1.93527,-0.14485 2.00864,-0.96252 2.26688,-25.26323 z M 327.14285,481.06099 c 0,-1.5259 3.04262,-2.91455 16.43295,-7.5 17.9434,-6.14461 19.88084,-6.53203 19.39037,-3.87737 -0.23776,1.28689 -4.6898,3.25292 -16.82332,7.42919 -9.075,3.12356 -17.0625,5.71106 -17.75,5.75 -0.6875,0.0389 -1.25,-0.77187 -1.25,-1.80182 z m -0.66813,-7.70491 c -1.02713,-2.67667 1.62673,-4.0777 17.62882,-9.30664 11.51919,-3.76409 15.65801,-4.7415 16.23469,-3.83393 1.07699,1.69497 0.99475,2.32797 -0.44538,3.42812 -1.26619,0.96727 -30.59162,11.30992 -32.03138,11.297 -0.42977,-0.004 -1.0538,-0.7169 -1.38675,-1.58455 z m -57.76443,-4.18835 c -0.31209,-0.3121 -0.56744,-2.52709 -0.56744,-4.92222 0,-3.55962 0.41083,-4.53334 2.25,-5.33274 3.26777,-1.42034 31.86118,-8.97915 33.96629,-8.97915 1.44861,0 1.78371,0.84942 1.78371,4.52144 0,5.38349 0.56334,5.0561 -17,9.87975 -19.49829,5.35506 -19.83158,5.4339 -20.43256,4.83292 z m -21.56744,-1.36998 c -2.45148,-0.98252 -2.46156,-1.0303 -0.51934,-2.46195 2.56569,-1.89123 5.01934,-1.38861 5.01934,1.02818 0,2.34246 -1.2439,2.73878 -4.5,1.43377 z m 79.40402,-2.39051 c -0.34874,-1.38951 -1.5001,-2.98986 -2.55858,-3.55634 -1.69805,-0.90876 -1.89043,-1.98991 -1.63497,-9.1879 l 0.28953,-8.15795 18.90835,-4.83852 c 20.29687,-5.19384 20.54457,-5.18761 20.57634,0.51709 0.0147,2.64619 -2.97912,6.75 -4.92432,6.75 -0.5168,0 -1.0793,1.6875 -1.25,3.75 l -0.31037,3.75 -13.5,6.67198 c -7.425,3.66958 -13.82893,6.70708 -14.23095,6.75 -0.40202,0.0429 -1.01628,-1.05885 -1.36503,-2.44836 z M 240.126,371.86949 c -12.36573,-7.18528 -24.62065,-14.23179 -27.23315,-15.65893 -2.6125,-1.42714 -4.75,-2.94672 -4.75,-3.37685 0,-1.46372 1.78834,-1.89406 2.30254,-0.55408 0.28165,0.73399 4.94131,3.94059 10.35478,7.12576 21.78038,12.81514 29.19461,17.07997 36.84268,21.19277 4.4,2.36612 7.31742,4.30956 6.48315,4.31875 -0.83427,0.009 -11.63427,-5.86215 -24,-13.04742 z m 26.11439,11.63326 c 0.66379,-0.66379 44.00559,-11.84353 47.40246,-12.22716 4.98526,-0.56301 2.00355,0.30755 -22.64324,6.61113 -23.19774,5.93296 -25.62722,6.48403 -24.75922,5.61603 z m 50.90246,-12.83502 c 0.275,-0.30866 9.275,-2.89514 20,-5.74773 24.41959,-6.49503 27.06822,-7.13031 28.18124,-6.7593 0.49535,0.16512 -9.35529,2.95538 -21.89031,6.20058 -28.06469,7.26571 -26.89577,6.98532 -26.29093,6.30645 z m 55.5,-14.68789 c 14.1105,-4.15486 26.45903,-7.22654 27.5669,-6.85725 0.6559,0.21863 -6.24765,2.29055 -15.34122,4.60427 -16.89649,4.29905 -22.98482,5.42102 -12.22568,2.25298 z m 30.3125,-7.72933 c 0.72187,-0.28887 1.58438,-0.25335 1.91667,0.0789 0.33229,0.33229 -0.25834,0.56864 -1.3125,0.52522 -1.16495,-0.048 -1.4019,-0.28494 -0.60417,-0.60416 z m 4.6875,-1.15479 c 1.1,-0.46627 5.375,-1.67934 9.5,-2.69571 7.19656,-1.77318 10.00053,-2.98984 9.99954,-4.33883 -2.5e-4,-0.34516 -5.40025,-4.62222 -12,-9.50459 -6.59975,-4.88236 -11.99954,-9.07551 -11.99954,-9.31809 0,-0.54613 3.7162,2.07253 16.31054,11.49337 5.3958,4.03618 9.63594,7.87024 9.42254,8.52013 -0.2134,0.64989 -4.14917,2.17671 -8.74617,3.39294 -9.94325,2.63067 -15.47065,3.71553 -12.48691,2.45078 z m -11.25,-30.25448 c -2.8875,-2.18765 -5.25,-4.18607 -5.25,-4.44092 0,-0.6303 9.85346,6.48717 10.55714,7.62576 0.87042,1.40836 0.31749,1.07655 -5.30714,-3.18484 z m -8.25,-5.90762 c -0.90129,-0.58246 -1.02463,-0.97549 -0.30902,-0.98469 0.65504,-0.008 1.4691,0.43469 1.80902,0.98469 0.7673,1.24153 0.42112,1.24153 -1.5,0 z m -128.75,-92.59128 c -9.4875,-9.11686 -17.25,-17.1653 -17.25,-17.88542 0,-1.88869 2.33901,-2.52255 9.33179,-2.52888 3.39251,-0.003 7.83154,-0.46754 9.86449,-1.03217 2.79302,-0.77572 7.55826,-0.53693 19.5,0.97717 8.69205,1.10207 18.47177,2.25319 21.73272,2.55805 7.40338,0.69211 10.571,1.46878 10.571,2.59189 0,0.47989 -1.0125,1.0541 -2.25,1.27601 -1.2375,0.22191 -7.50835,1.41084 -13.93523,2.64206 -6.42688,1.23122 -13.07292,2.03491 -14.76898,1.78598 -4.8547,-0.71251 -5.34926,0.76312 -4.76046,14.20392 0.28919,6.60147 0.23079,11.99925 -0.12977,11.99508 -0.36056,-0.004 -8.41806,-7.46684 -17.90556,-16.58369 z m 19.8708,-39.84046 c -7.86361,-3.189 -13.18084,-6.56826 -10.33509,-6.56826 0.88473,0 1.21429,-3.24731 1.21429,-11.96482 0,-14.11029 0.38902,-14.64039 10.09779,-13.76003 7.76534,0.70414 8.78362,1.51062 4.89398,3.87605 -2.10877,1.28242 -2.9759,2.44776 -2.58309,3.47142 0.32523,0.84753 0.59132,6.68576 0.59132,12.97387 l 0,11.43291 3.25,1.98156 c 4.74181,2.89114 2.37772,2.41273 -7.1292,-1.4427 z"
         id="path3016"
         inkscape:connector-curvature="0" />
      <path
         style="fill:#474646"
         d="m 234.64285,494.84386 c -26.3759,-13.9676 -23.5,-11.16106 -23.5,-22.93329 0,-8.03104 0.28172,-9.97695 1.4444,-9.97695 1.3272,0 29.38717,14.04407 39.3056,19.67254 l 4.25,2.41177 0,10.45784 c 0,7.70712 -0.32879,10.45415 -1.25,10.44378 -0.6875,-0.008 -9.8,-4.5418 -20.25,-10.07569 z m -66.64275,-25.61232 -33.64275,-13.49607 -0.38752,-6.85808 c -0.27548,-4.87532 -0.97872,-7.66554 -2.43241,-9.65093 -1.12468,-1.53606 -2.57219,-5.44857 -3.21668,-8.69446 -0.6684,-3.36633 -2.30372,-7.38563 -3.80667,-9.3561 -4.90109,-6.42567 -13.62273,-7.89011 -19.34777,-3.24867 -1.3879,1.12521 -4.54845,2.96484 -7.023449,4.08808 -2.475,1.12323 -5.91453,3.40614 -7.64339,5.07312 l -3.1434,3.03087 -0.69528,-5.05534 c -0.38241,-2.78044 -1.49793,-6.62967 -2.47893,-8.55385 -0.98101,-1.92418 -1.5905,-3.69165 -1.35444,-3.92771 0.23606,-0.23607 2.9315,0.22423 5.98987,1.02288 3.05837,0.79866 6.18278,1.21338 6.94312,0.9216 1.12524,-0.43179 1.38245,-5.15047 1.38245,-25.36188 0,-16.68775 -0.35984,-25.19122 -1.09722,-25.9286 -1.40336,-1.40336 -34.673174,-10.86572 -35.455027,-10.08387 -0.322599,0.3226 -0.851056,12.21782 -1.174348,26.43382 l -0.587803,25.84727 -3.412142,2.25 c -1.876677,1.2375 -3.75742,2.25 -4.179427,2.25 -0.812247,0 -2.484211,-178.94316 -1.679484,-179.74788 0.258845,-0.25885 12.083963,2.47706 26.278039,6.0798 14.194072,3.60273 48.575241,12.29421 76.402591,19.31439 l 50.59518,12.76397 0.65201,48.04486 c 2.1293,156.90275 2.13316,166.55338 0.0664,166.44185 -1.04985,-0.0566 -17.04805,-6.17623 -35.55156,-13.59907 z m 12.94275,-30.49792 c 1.39173,-1.39173 1.72725,-48.42096 0.36082,-50.57403 -0.44471,-0.70072 -8.42532,-3.46678 -17.73469,-6.14679 -15.22269,-4.38236 -17.05193,-4.71294 -18.17613,-3.28484 -1.46074,1.85563 -1.80045,47.78889 -0.37013,50.04553 0.61625,0.97226 28.77645,10.08774 34.17013,11.0609 0.3025,0.0546 1.09,-0.44077 1.75,-1.10077 z m 2.34301,-107.05 c 0.19635,-0.6875 0.13199,-12.5 -0.14301,-26.25 l -0.5,-25 -16.66186,-4.39081 c -9.16402,-2.41495 -17.37652,-4.11657 -18.25,-3.78139 -1.39219,0.53424 -1.58814,3.69066 -1.58814,25.5818 0,18.87975 0.30497,25.16975 1.25,25.78138 1.72385,1.1157 30.74732,9.14144 33.39301,9.23402 1.17866,0.0412 2.30366,-0.4875 2.5,-1.175 z M 96.909731,286.32008 c 0.22206,-20.89501 0.0245,-25.31469 -1.17591,-26.31096 -2.17671,-1.80651 -33.952839,-10.11363 -34.933842,-9.13263 -1.172863,1.17287 -2.019511,49.23588 -0.895592,50.84156 0.995422,1.4221 31.563114,10.10292 34.738464,9.86526 1.93527,-0.14485 2.00864,-0.96252 2.26688,-25.26323 z M 327.14285,481.06099 c 0,-1.5259 3.04262,-2.91455 16.43295,-7.5 17.9434,-6.14461 19.88084,-6.53203 19.39037,-3.87737 -0.23776,1.28689 -4.6898,3.25292 -16.82332,7.42919 -9.075,3.12356 -17.0625,5.71106 -17.75,5.75 -0.6875,0.0389 -1.25,-0.77187 -1.25,-1.80182 z m -0.66813,-7.70491 c -1.02713,-2.67667 1.62673,-4.0777 17.62882,-9.30664 11.51919,-3.76409 15.65801,-4.7415 16.23469,-3.83393 1.07699,1.69497 0.99475,2.32797 -0.44538,3.42812 -1.26619,0.96727 -30.59162,11.30992 -32.03138,11.297 -0.42977,-0.004 -1.0538,-0.7169 -1.38675,-1.58455 z m -57.76443,-4.18835 c -0.31209,-0.3121 -0.56744,-2.52709 -0.56744,-4.92222 0,-3.55962 0.41083,-4.53334 2.25,-5.33274 3.26777,-1.42034 31.86118,-8.97915 33.96629,-8.97915 1.44861,0 1.78371,0.84942 1.78371,4.52144 0,5.38349 0.56334,5.0561 -17,9.87975 -19.49829,5.35506 -19.83158,5.4339 -20.43256,4.83292 z m -21.56744,-1.36998 c -2.45148,-0.98252 -2.46156,-1.0303 -0.51934,-2.46195 2.56569,-1.89123 5.01934,-1.38861 5.01934,1.02818 0,2.34246 -1.2439,2.73878 -4.5,1.43377 z m 79.40402,-2.39051 c -0.34874,-1.38951 -1.5001,-2.98986 -2.55858,-3.55634 -1.69805,-0.90876 -1.89043,-1.98991 -1.63497,-9.1879 l 0.28953,-8.15795 18.90835,-4.83852 c 20.29687,-5.19384 20.54457,-5.18761 20.57634,0.51709 0.0147,2.64619 -2.97912,6.75 -4.92432,6.75 -0.5168,0 -1.0793,1.6875 -1.25,3.75 l -0.31037,3.75 -13.5,6.67198 c -7.425,3.66958 -13.82893,6.70708 -14.23095,6.75 -0.40202,0.0429 -1.01628,-1.05885 -1.36503,-2.44836 z M 262.0708,218.26855 c -14.36541,-13.60584 -16.57802,-16.01819 -15.59423,-17.00198 0.28437,-0.28437 7.31031,1.21188 15.61319,3.325 l 15.09616,3.84205 0.28205,11.75 c 0.15514,6.4625 5.3e-4,11.75 -0.34358,11.75 -0.3441,0 -7.11822,-6.14928 -15.05359,-13.66507 z m 14.32205,-43.29326 -6.25,-2.95674 0,-12.00728 c 0,-14.15833 0.38407,-14.68331 10.09779,-13.8025 7.56878,0.68631 8.79059,1.51484 5.32507,3.61102 l -2.7483,1.66236 0.23258,13.22573 c 0.12791,7.27416 0.0886,13.22538 -0.0873,13.22495 -0.17592,-4.3e-4 -3.13235,-1.33132 -6.56985,-2.95754 z"
         id="path3014"
         inkscape:connector-curvature="0" />
    </g>
  </g>
</svg>
